<svg width="56" height="58" viewBox="0 0 56 58" fill="none" xmlns="http://www.w3.org/2000/svg">
<g clip-path="url(#clip0)">
<path d="M18.708 44.7286C18.708 44.9537 18.4486 45.1338 18.1216 45.1338C17.7495 45.1675 17.4901 44.9874 17.4901 44.7286C17.4901 44.5035 17.7495 44.3234 18.0765 44.3234C18.4148 44.2896 18.708 44.4697 18.708 44.7286ZM15.2009 44.2221C15.122 44.4472 15.3475 44.7061 15.6858 44.7736C15.979 44.8862 16.3173 44.7736 16.385 44.5485C16.4526 44.3234 16.2384 44.0645 15.9001 43.9632C15.6069 43.8844 15.2799 43.997 15.2009 44.2221ZM20.1852 44.0308C19.8582 44.1095 19.6327 44.3234 19.6665 44.5823C19.7003 44.8074 19.9935 44.9537 20.3318 44.8749C20.6588 44.7961 20.8844 44.5823 20.8505 44.3572C20.8167 44.1433 20.5122 43.997 20.1852 44.0308ZM27.6052 0.900452C11.9645 0.900452 0 12.7523 0 28.3634C0 40.8455 7.8711 51.5268 19.1139 55.286C20.5573 55.5449 21.0648 54.6558 21.0648 53.9242C21.0648 53.2263 21.031 49.377 21.031 47.0134C21.031 47.0134 13.1373 48.7017 11.4796 43.6593C11.4796 43.6593 10.1941 40.384 8.34472 39.5399C8.34472 39.5399 5.76237 37.7728 8.52515 37.8066C8.52515 37.8066 11.333 38.0317 12.8779 40.7104C15.3475 45.055 19.4861 43.8056 21.0986 43.0628C21.358 41.2619 22.091 40.0126 22.9029 39.2698C16.5992 38.5719 10.2392 37.6603 10.2392 26.8327C10.2392 23.7374 11.0962 22.1842 12.9005 20.2033C12.6073 19.4717 11.6488 16.4553 13.1937 12.5609C15.5505 11.8293 20.9746 15.5999 20.9746 15.5999C23.2299 14.9696 25.6544 14.6432 28.0563 14.6432C30.4582 14.6432 32.8827 14.9696 35.1381 15.5999C35.1381 15.5999 40.5621 11.8181 42.9189 12.5609C44.4638 16.4665 43.5053 19.4717 43.2121 20.2033C45.0164 22.1955 46.1215 23.7487 46.1215 26.8327C46.1215 37.694 39.4796 38.5607 33.1759 39.2698C34.2134 40.1589 35.0929 41.8472 35.0929 44.4922C35.0929 48.2853 35.0591 52.9787 35.0591 53.9016C35.0591 54.6332 35.5778 55.5224 37.01 55.2635C48.2866 51.5268 55.9322 40.8455 55.9322 28.3634C55.9322 12.7523 43.246 0.900452 27.6052 0.900452ZM10.9609 39.72C10.8143 39.8325 10.8481 40.0914 11.0398 40.3052C11.2203 40.4853 11.4796 40.5641 11.6262 40.4178C11.7728 40.3052 11.739 40.0464 11.5473 39.8325C11.3669 39.6524 11.1075 39.5737 10.9609 39.72ZM9.74303 38.8083C9.66409 38.9546 9.77686 39.1347 10.0024 39.2472C10.1828 39.3598 10.4084 39.326 10.4873 39.1685C10.5662 39.0221 10.4535 38.8421 10.2279 38.7295C10.0024 38.662 9.82197 38.6957 9.74303 38.8083ZM13.3967 42.8152C13.2162 42.9615 13.2839 43.2992 13.5433 43.513C13.8026 43.7719 14.1296 43.8056 14.2762 43.6256C14.4228 43.4792 14.3552 43.1416 14.1296 42.9277C13.8816 42.6689 13.5433 42.6351 13.3967 42.8152ZM12.1111 41.1607C11.9307 41.2732 11.9307 41.5658 12.1111 41.8247C12.2916 42.0836 12.596 42.1961 12.7426 42.0836C12.923 41.9373 12.923 41.6446 12.7426 41.3858C12.5847 41.1269 12.2916 41.0143 12.1111 41.1607Z" fill="#10436B"/>
</g>
<defs>
<clipPath id="clip0">
<rect width="55.9322" height="57.6271" fill="white"/>
</clipPath>
</defs>
</svg>
