<svg width="56" height="56" viewBox="0 0 56 56" fill="none" xmlns="http://www.w3.org/2000/svg">
<g clip-path="url(#clip0)">
<path d="M28.0124 14.0302C20.1073 14.0302 13.7311 20.2493 13.7311 27.9595C13.7311 35.6697 20.1073 41.8888 28.0124 41.8888C35.9175 41.8888 42.2938 35.6697 42.2938 27.9595C42.2938 20.2493 35.9175 14.0302 28.0124 14.0302ZM28.0124 37.0154C22.9039 37.0154 18.7277 32.9542 18.7277 27.9595C18.7277 22.9648 22.8915 18.9036 28.0124 18.9036C33.1333 18.9036 37.2972 22.9648 37.2972 27.9595C37.2972 32.9542 33.1209 37.0154 28.0124 37.0154ZM46.209 13.4604C46.209 15.2667 44.7175 16.7094 42.8779 16.7094C41.026 16.7094 39.5469 15.2546 39.5469 13.4604C39.5469 11.6662 41.0384 10.2114 42.8779 10.2114C44.7175 10.2114 46.209 11.6662 46.209 13.4604ZM55.6678 16.7579C55.4565 12.4057 54.4373 8.5506 51.1683 5.37438C47.9118 2.19816 43.9593 1.20407 39.4972 0.985859C34.8983 0.731276 21.1141 0.731276 16.5152 0.985859C12.0655 1.19195 8.11297 2.18603 4.84405 5.36226C1.57512 8.53848 0.568341 12.3936 0.344612 16.7457C0.0835953 21.2312 0.0835953 34.6756 0.344612 39.1611C0.555912 43.5133 1.57512 47.3684 4.84405 50.5446C8.11297 53.7208 12.0531 54.7149 16.5152 54.9331C21.1141 55.1877 34.8983 55.1877 39.4972 54.9331C43.9593 54.727 47.9118 53.7329 51.1683 50.5446C54.4248 47.3684 55.444 43.5133 55.6678 39.1611C55.9288 34.6756 55.9288 21.2434 55.6678 16.7579ZM49.7265 43.9739C48.757 46.3501 46.8802 48.1806 44.4316 49.1383C40.765 50.5567 32.0644 50.2294 28.0124 50.2294C23.9604 50.2294 15.2474 50.5446 11.5932 49.1383C9.15704 48.1927 7.28021 46.3622 6.29829 43.9739C4.84405 40.3977 5.17964 31.9116 5.17964 27.9595C5.17964 24.0074 4.85648 15.5092 6.29829 11.945C7.26778 9.56893 9.14461 7.73836 11.5932 6.78064C15.2599 5.36225 23.9604 5.68958 28.0124 5.68958C32.0644 5.68958 40.7774 5.37438 44.4316 6.78064C46.8678 7.72624 48.7446 9.55681 49.7265 11.945C51.1808 15.5213 50.8452 24.0074 50.8452 27.9595C50.8452 31.9116 51.1808 40.4098 49.7265 43.9739Z" fill="#10436B"/>
</g>
<defs>
<clipPath id="clip0">
<rect width="55.9322" height="54.4322" fill="white" transform="translate(0.033905 0.694885)"/>
</clipPath>
</defs>
</svg>
