<svg width="56" height="55" viewBox="0 0 56 55" fill="none" xmlns="http://www.w3.org/2000/svg">
<g clip-path="url(#clip0)">
<path d="M12.4393 54.1977H0.980746V18.0135H12.4393V54.1977ZM6.70387 13.0777C3.03979 13.0777 0.0678101 10.1016 0.0678101 6.50862C0.0678101 4.78277 0.766964 3.1276 2.01147 1.90724C3.25597 0.686874 4.94387 0.00128174 6.70387 0.00128174C8.46386 0.00128174 10.1518 0.686874 11.3963 1.90724C12.6408 3.1276 13.3399 4.78277 13.3399 6.50862C13.3399 10.1016 10.3667 13.0777 6.70387 13.0777ZM55.3251 54.1977H43.8912V36.5834C43.8912 32.3855 43.8048 27.0021 37.9337 27.0021C31.9761 27.0021 31.0632 31.5629 31.0632 36.281V54.1977H19.617V18.0135H30.6067V22.9494H30.7671C32.2969 20.1064 36.0338 17.1062 41.6089 17.1062C53.2056 17.1062 55.3374 24.5946 55.3374 34.3212V54.1977H55.3251Z" fill="#10436B"/>
</g>
<defs>
<clipPath id="clip0">
<rect width="55.9322" height="54.4322" fill="white" transform="translate(0.0678101)"/>
</clipPath>
</defs>
</svg>
