<svg width="82" height="66" viewBox="0 0 82 66" fill="none" xmlns="http://www.w3.org/2000/svg">
<g clip-path="url(#clip0)">
<path d="M73.6975 41.9766C73.7231 41.7317 73.8 41.4997 73.8 41.2548C73.8 36.7053 70.1228 33.0064 65.6 33.0064C63.9856 33.0064 62.4994 33.4962 61.2309 34.2953C58.9759 29.2947 53.9919 25.7891 48.175 25.7891C40.2569 25.7891 33.825 32.246 33.825 40.2238C33.825 40.6104 33.9147 40.9713 33.9403 41.3451C27.5853 41.8219 22.55 47.106 22.55 53.6274C22.55 60.4581 28.0594 66 34.85 66H69.7C76.4906 66 82 60.4581 82 53.6274C82 48.2015 78.515 43.652 73.6975 41.9766ZM18.5525 39.0639C12.9534 33.4318 12.9534 24.2812 18.5525 18.662C24.1516 13.0299 33.2484 13.0299 38.8475 18.662C40.0903 19.9121 41.0128 21.3556 41.7047 22.8764C42.9603 22.3995 44.28 22.1031 45.6381 21.9098L49.4562 10.4523C49.9688 8.91857 48.5209 7.4751 46.9962 7.97774L35.7469 11.754L30.4297 1.0826C29.725 -0.360867 27.675 -0.360867 26.9575 1.0826L21.6531 11.754L10.3909 7.97774C8.87906 7.4751 7.43125 8.93146 7.93094 10.4523L11.685 21.768L1.07625 27.1166C-0.35875 27.8383 -0.35875 29.8875 1.07625 30.6093L11.685 35.9449L7.93094 47.2607C7.41844 48.7944 8.86625 50.2378 10.3909 49.7352L20.1412 46.4745C20.9228 44.8764 21.935 43.42 23.165 42.157C21.4866 41.461 19.9106 40.43 18.5525 39.0639ZM17.9375 28.8565C17.9375 34.1148 21.6916 38.4968 26.6372 39.4634C27.6622 38.8576 28.7256 38.3292 29.8659 37.9555C30.5578 32.246 33.8378 27.3228 38.5016 24.423C36.8103 20.6725 33.0562 18.0434 28.7 18.0434C22.7678 18.0434 17.9375 22.8893 17.9375 28.8565Z" fill="#10436B"/>
</g>
<defs>
<clipPath id="clip0">
<rect width="82" height="66" fill="white"/>
</clipPath>
</defs>
</svg>
