<svg width="50" height="100" viewBox="0 0 50 100" fill="none" xmlns="http://www.w3.org/2000/svg">
<g clip-path="url(#clip0)">
<path d="M37.1562 75C37.1562 81.9035 31.6111 87.5 24.7709 87.5C17.9307 87.5 12.3856 81.9035 12.3856 75C12.3856 70.374 14.8774 66.3381 18.5783 64.1764V31.25C18.5783 27.7982 21.3508 25 24.7709 25C28.191 25 30.9636 27.7982 30.9636 31.25V64.1764C34.6645 66.3381 37.1562 70.374 37.1562 75ZM43.3489 58.4662C47.2023 62.873 49.5415 68.6604 49.5415 75C49.5415 88.8078 38.4522 100 24.7709 100C24.7131 100 24.6531 99.9998 24.595 99.9994C10.9901 99.9041 -0.0687821 88.6008 0.000691763 74.8697C0.0324291 68.5811 2.36609 62.8428 6.19296 58.4662V18.75C6.19296 8.39473 14.5107 0 24.7709 0C35.0312 0 43.3489 8.39473 43.3489 18.75V58.4662ZM40.2526 75C40.2526 68.2932 36.5041 64.8066 34.0599 62.0113V18.75C34.0599 13.5807 29.8928 9.375 24.7709 9.375C19.649 9.375 15.4819 13.5807 15.4819 18.75V62.0113C13.018 64.8293 9.32315 68.2809 9.28948 74.9176C9.24613 83.4871 16.1716 90.5652 24.6595 90.6246L24.7709 90.625C33.3075 90.625 40.2526 83.6156 40.2526 75Z" fill="#10436B"/>
</g>
<defs>
<clipPath id="clip0">
<rect width="49.5415" height="100" fill="white"/>
</clipPath>
</defs>
</svg>
