<svg width="69" height="100" viewBox="0 0 69 100" fill="none" xmlns="http://www.w3.org/2000/svg">
<g clip-path="url(#clip0)">
<path d="M40.082 4.31452C38.5312 -1.30657 30.4258 -1.56829 28.6679 4.31452C19.5332 35.127 0 43.5 0 65.2168C0 84.4434 15.375 100 34.375 100C53.375 100 68.75 84.4434 68.75 65.2168C68.75 43.3907 49.2597 35.2676 40.082 4.31452ZM34.375 87.5C22.3144 87.5 12.5 77.6856 12.5 65.625C12.5 63.8985 13.8984 62.5 15.625 62.5C17.3516 62.5 18.75 63.8985 18.75 65.625C18.75 74.2403 25.7597 81.25 34.375 81.25C36.1015 81.25 37.5 82.6485 37.5 84.375C37.5 86.1016 36.1015 87.5 34.375 87.5Z" fill="#10436B"/>
</g>
<defs>
<clipPath id="clip0">
<rect width="68.75" height="100" fill="white"/>
</clipPath>
</defs>
</svg>
