<svg width="114" height="100" viewBox="0 0 114 100" fill="none" xmlns="http://www.w3.org/2000/svg">
<g clip-path="url(#clip0)">
<path d="M34.5975 50H3.53261C1.58967 50 0 51.5897 0 53.5326V60.5978C0 62.5408 1.58967 64.1305 3.53261 64.1305H34.9287C38.4392 64.1305 41.7289 66.537 42.303 70.0034C43.0316 74.4192 39.6315 78.2609 35.3261 78.2609C32.213 78.2609 29.5635 76.2296 28.6141 73.4256C28.1505 72.0347 26.7154 71.1957 25.2582 71.1957H18.0163C15.8526 71.1957 14.1084 73.1386 14.5058 75.2582C16.4046 84.9949 25.0153 92.3913 35.304 92.3913C47.911 92.3913 57.9789 81.3298 56.323 68.4137C54.9762 57.7276 45.3499 50 34.5975 50ZM3.53261 42.9348H77.7174C90.8984 42.9348 101.298 30.8356 98.4273 17.1688C96.7493 9.17631 90.2802 2.70722 82.2877 1.02923C70.056 -1.53191 59.0829 6.52686 56.9192 17.6987C56.4997 19.8183 58.266 21.7392 60.4076 21.7392H67.6495C69.1287 21.7392 70.5418 20.9002 71.0054 19.5092C71.9548 16.7052 74.6043 14.6739 77.7174 14.6739C82.0007 14.6739 85.4229 18.5156 84.6943 22.9314C84.1202 26.3978 80.8526 28.8044 77.32 28.8044H3.53261C1.58967 28.8044 0 30.394 0 32.337V39.4022C0 41.3451 1.58967 42.9348 3.53261 42.9348ZM88.3152 50H53.806C58.0673 53.6651 61.1362 58.5666 62.5934 64.1305H88.3152C94.1661 64.1305 98.913 68.8774 98.913 74.7283C98.913 80.5792 94.1661 85.3261 88.3152 85.3261C84.3631 85.3261 80.963 83.1403 79.1304 79.9389C78.4901 78.8349 77.2096 78.2609 75.929 78.2609H68.4664C66.0598 78.2609 64.2714 80.6454 65.0883 82.9195C69.0183 94.0914 80.6539 101.642 93.6583 98.8825C102.755 96.9616 110.239 89.6977 112.359 80.6233C116.135 64.4616 103.881 50 88.3152 50Z" fill="#10436B"/>
</g>
<defs>
<clipPath id="clip0">
<rect width="113.768" height="100" fill="white"/>
</clipPath>
</defs>
</svg>
